<svg width="37" height="36" viewBox="0 0 37 36" fill="none" xmlns="http://www.w3.org/2000/svg">
<path d="M31.3573 16.0763H28.6252V7.07633C28.6252 4.2357 26.3229 1.93347 23.4823 1.93347H13.518C10.6774 1.93347 8.37516 4.2357 8.37516 7.07633V16.0763H5.64301C4.93185 16.0763 4.3573 16.6509 4.3573 17.362V32.7906C4.3573 33.5018 4.93185 34.0763 5.64301 34.0763H31.3573C32.0685 34.0763 32.643 33.5018 32.643 32.7906V17.362C32.643 16.6509 32.0685 16.0763 31.3573 16.0763ZM11.268 7.07633C11.268 5.83481 12.2765 4.82633 13.518 4.82633H23.4823C24.7238 4.82633 25.7323 5.83481 25.7323 7.07633V16.0763H11.268V7.07633ZM29.7502 31.1835H7.25016V18.9692H29.7502V31.1835ZM17.3752 25.5987V27.7281C17.3752 27.9049 17.5198 28.0495 17.6966 28.0495H19.3037C19.4805 28.0495 19.6252 27.9049 19.6252 27.7281V25.5987C19.9568 25.3605 20.2044 25.0233 20.3322 24.6356C20.46 24.2478 20.4615 23.8295 20.3364 23.4408C20.2113 23.0521 19.9662 22.7132 19.6362 22.4727C19.3062 22.2323 18.9084 22.1027 18.5002 22.1027C18.0919 22.1027 17.6941 22.2323 17.3641 22.4727C17.0342 22.7132 16.789 23.0521 16.6639 23.4408C16.5388 23.8295 16.5403 24.2478 16.6681 24.6356C16.7959 25.0233 17.0435 25.3605 17.3752 25.5987Z" fill="#1890FF"/>
</svg>
