<svg width="22" height="21" viewBox="0 0 22 21" fill="none" xmlns="http://www.w3.org/2000/svg">
<path d="M11.0029 0C5.20449 0 0.50293 4.70156 0.50293 10.5C0.50293 16.2984 5.20449 21 11.0029 21C16.8014 21 21.5029 16.2984 21.5029 10.5C21.5029 4.70156 16.8014 0 11.0029 0ZM11.0029 19.2188C6.18887 19.2188 2.28418 15.3141 2.28418 10.5C2.28418 5.68594 6.18887 1.78125 11.0029 1.78125C15.817 1.78125 19.7217 5.68594 19.7217 10.5C19.7217 15.3141 15.817 19.2188 11.0029 19.2188Z" fill="black" fill-opacity="0.85"/>
<path d="M15.0976 13.465L11.7555 11.0486V5.2478C11.7555 5.14468 11.6711 5.0603 11.568 5.0603H10.4406C10.3375 5.0603 10.2531 5.14468 10.2531 5.2478V11.7025C10.2531 11.7634 10.2812 11.8197 10.3305 11.8548L14.207 14.6814C14.2914 14.7423 14.4086 14.7236 14.4695 14.6416L15.1398 13.7275C15.2008 13.6408 15.182 13.5236 15.0976 13.465Z" fill="black" fill-opacity="0.85"/>
</svg>
