<svg width="37" height="30" viewBox="0 0 37 30" fill="none" xmlns="http://www.w3.org/2000/svg">
<path d="M35.2143 0.849854H1.78571C1.07455 0.849854 0.5 1.42441 0.5 2.13557V27.8499C0.5 28.561 1.07455 29.1356 1.78571 29.1356H35.2143C35.9254 29.1356 36.5 28.561 36.5 27.8499V2.13557C36.5 1.42441 35.9254 0.849854 35.2143 0.849854ZM33.6071 5.30164V26.2427H3.39286V5.30164L2.28393 4.4378L3.86295 2.40878L5.58259 3.74673H31.4214L33.1411 2.40878L34.7201 4.4378L33.6071 5.30164ZM31.4214 3.74271L18.5 13.7874L5.57857 3.74271L3.85893 2.40476L2.27991 4.43378L3.38884 5.29762L17.1138 15.9691C17.5086 16.2757 17.9941 16.4422 18.494 16.4422C18.9938 16.4422 19.4794 16.2757 19.8741 15.9691L33.6071 5.30164L34.7161 4.4378L33.1371 2.40878L31.4214 3.74271Z" fill="#1890FF"/>
</svg>
