<svg width="20" height="25" viewBox="0 0 20 25" fill="none" xmlns="http://www.w3.org/2000/svg">
<path d="M18.6314 11.3571C18.1114 10.1867 17.3555 9.13624 16.4109 8.27139L15.6314 7.55621C15.605 7.53259 15.5731 7.51583 15.5387 7.5074C15.5042 7.49897 15.4682 7.49912 15.4338 7.50785C15.3995 7.51658 15.3678 7.53361 15.3415 7.55745C15.3152 7.5813 15.2952 7.61122 15.2832 7.6446L14.935 8.64371C14.7181 9.27049 14.3189 9.91067 13.7538 10.5401C13.7163 10.5803 13.6734 10.591 13.6439 10.5937C13.6145 10.5964 13.5689 10.591 13.5288 10.5535C13.4913 10.5214 13.4725 10.4732 13.4752 10.425C13.5743 8.81246 13.0922 6.99371 12.0368 5.01424C11.1636 3.3696 9.9502 2.08656 8.43412 1.19192L7.32787 0.541029C7.18323 0.455315 6.99841 0.567815 7.00645 0.736565L7.06537 2.02228C7.10555 2.90085 7.00377 3.67764 6.7627 4.32317C6.46805 5.11335 6.04484 5.84728 5.50377 6.50621C5.12722 6.96414 4.70044 7.37835 4.23145 7.74103C3.10191 8.60933 2.18345 9.72192 1.54484 10.9955C0.907804 12.2802 0.575973 13.6946 0.575195 15.1285C0.575195 16.3928 0.824302 17.6169 1.31716 18.7714C1.79305 19.8829 2.47982 20.8917 3.33948 21.7419C4.20734 22.5991 5.21448 23.2741 6.3368 23.7428C7.4993 24.2303 8.73145 24.4767 10.0038 24.4767C11.2761 24.4767 12.5082 24.2303 13.6707 23.7455C14.7903 23.2795 15.8084 22.5999 16.6681 21.7446C17.5359 20.8875 18.2163 19.8857 18.6904 18.7741C19.1825 17.6228 19.4349 16.3833 19.4323 15.1312C19.4323 13.8241 19.1645 12.5544 18.6314 11.3571V11.3571ZM15.3877 20.4455C13.9493 21.8705 12.0395 22.6526 10.0038 22.6526C7.96805 22.6526 6.05823 21.8705 4.61984 20.4455C3.1868 19.0232 2.39662 17.1375 2.39662 15.1312C2.39662 13.966 2.65912 12.8491 3.17609 11.8098C3.67966 10.7946 4.42966 9.88657 5.34037 9.18746C5.92119 8.74333 6.44799 8.23271 6.91002 7.66603C7.57966 6.84907 8.10466 5.93835 8.46895 4.96067C8.61837 4.55738 8.72695 4.14011 8.79305 3.71514C9.43859 4.30978 9.97966 5.02764 10.4323 5.86871C11.327 7.54549 11.7395 9.03746 11.6591 10.3071C11.6399 10.6061 11.6888 10.9056 11.802 11.183C11.9152 11.4605 12.0898 11.7086 12.3127 11.9089C12.5059 12.0834 12.7318 12.2178 12.9773 12.3042C13.2229 12.3907 13.4832 12.4275 13.7431 12.4125C14.2707 12.3857 14.7556 12.1526 15.1091 11.7589C15.4654 11.3598 15.7734 10.9526 16.0306 10.5375C16.4056 11.0169 16.7189 11.5392 16.9681 12.1017C17.3939 13.0607 17.6109 14.0812 17.6109 15.1312C17.6109 17.1375 16.8207 19.0259 15.3877 20.4455Z" fill="black" fill-opacity="0.85"/>
</svg>
