<svg width="32" height="32" viewBox="0 0 32 32" fill="none" xmlns="http://www.w3.org/2000/svg">
<path d="M29.9208 26.104C29.1629 24.3087 28.063 22.678 26.6824 21.3027C25.306 19.9234 23.6755 18.8237 21.8811 18.0643C21.865 18.0563 21.8489 18.0522 21.8328 18.0442C24.336 16.2362 25.9632 13.2911 25.9632 9.96832C25.9632 4.46385 21.5034 0.00402832 15.9989 0.00402832C10.4944 0.00402832 6.03462 4.46385 6.03462 9.96832C6.03462 13.2911 7.66185 16.2362 10.165 18.0482C10.1489 18.0563 10.1328 18.0603 10.1168 18.0683C8.31676 18.8277 6.70158 19.9165 5.31542 21.3067C3.93613 22.6831 2.83642 24.3136 2.07703 26.1081C1.331 27.8649 0.928655 29.7484 0.891763 31.6567C0.890691 31.6996 0.898212 31.7423 0.913885 31.7822C0.929557 31.8221 0.953063 31.8585 0.983018 31.8892C1.01297 31.9199 1.04877 31.9443 1.0883 31.961C1.12783 31.9776 1.1703 31.9862 1.21319 31.9862H3.62391C3.80069 31.9862 3.94132 31.8456 3.94533 31.6728C4.02569 28.571 5.27123 25.6661 7.47301 23.4643C9.75114 21.1862 12.7766 19.9326 15.9989 19.9326C19.2212 19.9326 22.2467 21.1862 24.5248 23.4643C26.7266 25.6661 27.9721 28.571 28.0525 31.6728C28.0565 31.8496 28.1971 31.9862 28.3739 31.9862H30.7846C30.8275 31.9862 30.87 31.9776 30.9095 31.961C30.949 31.9443 30.9848 31.9199 31.0148 31.8892C31.0447 31.8585 31.0683 31.8221 31.0839 31.7822C31.0996 31.7423 31.1071 31.6996 31.106 31.6567C31.0659 29.7362 30.6681 27.8679 29.9208 26.104ZM15.9989 16.879C14.1547 16.879 12.419 16.1598 11.1132 14.854C9.80739 13.5482 9.08819 11.8125 9.08819 9.96832C9.08819 8.12412 9.80739 6.3884 11.1132 5.0826C12.419 3.7768 14.1547 3.0576 15.9989 3.0576C17.8431 3.0576 19.5788 3.7768 20.8846 5.0826C22.1904 6.3884 22.9096 8.12412 22.9096 9.96832C22.9096 11.8125 22.1904 13.5482 20.8846 14.854C19.5788 16.1598 17.8431 16.879 15.9989 16.879Z" fill="#1890FF"/>
</svg>
