<svg width="32" height="32" viewBox="0 0 32 32" fill="none" xmlns="http://www.w3.org/2000/svg">
<path d="M31.2752 15.7539L16.7943 1.28354C16.6901 1.17907 16.5662 1.09619 16.4299 1.03964C16.2936 0.983088 16.1474 0.953979 15.9998 0.953979C15.8522 0.953979 15.7061 0.983088 15.5697 1.03964C15.4334 1.09619 15.3095 1.17907 15.2053 1.28354L0.724414 15.7539C0.302539 16.1757 0.0634766 16.7488 0.0634766 17.3464C0.0634766 18.5874 1.07246 19.5964 2.31348 19.5964H3.83926V29.9218C3.83926 30.5441 4.34199 31.0468 4.96426 31.0468H13.7498V23.1718H17.6873V31.0468H27.0354C27.6576 31.0468 28.1604 30.5441 28.1604 29.9218V19.5964H29.6861C30.2838 19.5964 30.8568 19.3609 31.2787 18.9355C32.1541 18.0566 32.1541 16.6328 31.2752 15.7539Z" fill="black" fill-opacity="0.45"/>
</svg>
