<svg width="36" height="36" viewBox="0 0 36 36" fill="none" xmlns="http://www.w3.org/2000/svg">
<path d="M32.3042 26.8412H29.4796C29.2867 26.8412 29.1059 26.9256 28.9854 27.0743C28.7042 27.4158 28.4028 27.7453 28.0854 28.0586C26.7872 29.3581 25.2495 30.3937 23.5573 31.1082C21.8041 31.8487 19.9198 32.2286 18.0167 32.2252C16.0921 32.2252 14.2278 31.8475 12.476 31.1082C10.7838 30.3937 9.2461 29.3581 7.9479 28.0586C6.64738 26.7635 5.61038 25.2285 4.89433 23.5386C4.15103 21.7868 3.77737 19.9265 3.77737 18.0019C3.77737 16.0774 4.15504 14.2171 4.89433 12.4653C5.60951 10.7738 6.63808 9.25105 7.9479 7.94525C9.25772 6.63944 10.7805 5.61087 12.476 4.89569C14.2278 4.15641 16.0921 3.77873 18.0167 3.77873C19.9412 3.77873 21.8055 4.15239 23.5573 4.89569C25.2528 5.61087 26.7756 6.63944 28.0854 7.94525C28.4028 8.26266 28.7001 8.59212 28.9854 8.92962C29.1059 9.07828 29.2908 9.16266 29.4796 9.16266H32.3042C32.5573 9.16266 32.714 8.88141 32.5733 8.66846C29.4917 3.87918 24.0997 0.709087 17.9725 0.725158C8.34567 0.749266 0.627366 8.564 0.723794 18.1787C0.820223 27.6408 8.52647 35.2787 18.0167 35.2787C24.1278 35.2787 29.4957 32.1127 32.5733 27.3354C32.71 27.1225 32.5573 26.8412 32.3042 26.8412ZM35.876 17.7488L30.1747 13.2488C29.9617 13.0801 29.6524 13.2327 29.6524 13.5019V16.5555H17.0363C16.8595 16.5555 16.7149 16.7002 16.7149 16.8769V19.1269C16.7149 19.3037 16.8595 19.4484 17.0363 19.4484H29.6524V22.5019C29.6524 22.7711 29.9658 22.9238 30.1747 22.7551L35.876 18.2551C35.9144 18.225 35.9455 18.1866 35.9669 18.1427C35.9883 18.0989 35.9994 18.0507 35.9994 18.0019C35.9994 17.9532 35.9883 17.905 35.9669 17.8612C35.9455 17.8173 35.9144 17.7789 35.876 17.7488Z" fill="black" fill-opacity="0.45"/>
</svg>
