<svg width="22" height="23" viewBox="0 0 22 23" fill="none" xmlns="http://www.w3.org/2000/svg">
<path d="M21.0171 12.0806C21.4671 11.486 21.7162 10.7574 21.7162 9.99935C21.7162 8.79667 21.0438 7.65828 19.9617 7.02346C19.6831 6.86005 19.3659 6.77405 19.043 6.77435H12.6197L12.7805 3.48239C12.818 2.68685 12.5367 1.93149 11.9903 1.3556C11.7221 1.07175 11.3986 0.845903 11.0397 0.692025C10.6808 0.538147 10.2942 0.459504 9.90367 0.460957C8.51081 0.460957 7.27867 1.39846 6.90903 2.74042L4.60813 11.0708H1.14474C0.670633 11.0708 0.287598 11.4538 0.287598 11.9279V21.6779C0.287598 22.152 0.670633 22.5351 1.14474 22.5351H17.251C17.4974 22.5351 17.7385 22.4869 17.9608 22.3904C19.2358 21.8467 20.0581 20.6011 20.0581 19.219C20.0581 18.8815 20.0099 18.5494 19.9135 18.2279C20.3635 17.6333 20.6126 16.9047 20.6126 16.1467C20.6126 15.8092 20.5644 15.477 20.468 15.1556C20.918 14.561 21.1671 13.8324 21.1671 13.0744C21.1617 12.7369 21.1135 12.402 21.0171 12.0806ZM2.21617 20.6065V12.9994H4.38581V20.6065H2.21617ZM19.2626 11.1511L18.676 11.6601L19.0483 12.3404C19.171 12.5645 19.2346 12.8162 19.2331 13.0717C19.2331 13.5136 19.0403 13.9342 18.7081 14.2235L18.1215 14.7324L18.4938 15.4127C18.6165 15.6369 18.6801 15.8885 18.6787 16.144C18.6787 16.586 18.4858 17.0065 18.1537 17.2958L17.5671 17.8047L17.9394 18.4851C18.062 18.7092 18.1257 18.9608 18.1242 19.2163C18.1242 19.8163 17.7706 20.3574 17.2242 20.6038H6.1001V12.9136L8.76528 3.25739C8.834 3.00989 8.98153 2.79153 9.1855 2.63541C9.38947 2.47929 9.63878 2.39391 9.89563 2.39221C10.0992 2.39221 10.3001 2.45114 10.4608 2.57167C10.726 2.76989 10.868 3.06989 10.8519 3.38864L10.5947 8.70292H19.0162C19.493 8.99489 19.7876 9.48774 19.7876 9.99935C19.7876 10.4413 19.5947 10.8592 19.2626 11.1511Z" fill="black" fill-opacity="0.85"/>
</svg>
