<svg width="32" height="36" viewBox="0 0 32 36" fill="none" xmlns="http://www.w3.org/2000/svg">
<path d="M23.0721 9.95694V8.02836C23.0721 7.85158 22.9275 7.70694 22.7507 7.70694H7.32213C7.14534 7.70694 7.0007 7.85158 7.0007 8.02836V9.95694C7.0007 10.1337 7.14534 10.2784 7.32213 10.2784H22.7507C22.9275 10.2784 23.0721 10.1337 23.0721 9.95694ZM7.32213 13.4927C7.14534 13.4927 7.0007 13.6373 7.0007 13.8141V15.7427C7.0007 15.9194 7.14534 16.0641 7.32213 16.0641H14.715C14.8918 16.0641 15.0364 15.9194 15.0364 15.7427V13.8141C15.0364 13.6373 14.8918 13.4927 14.715 13.4927H7.32213ZM22.4293 18.1534C17.636 18.1534 13.7507 22.0386 13.7507 26.8319C13.7507 31.6252 17.636 35.5105 22.4293 35.5105C27.2226 35.5105 31.1078 31.6252 31.1078 26.8319C31.1078 22.0386 27.2226 18.1534 22.4293 18.1534ZM26.7485 31.1511C25.5953 32.3043 24.0605 32.9391 22.4293 32.9391C20.798 32.9391 19.2632 32.3043 18.1101 31.1511C16.9569 29.998 16.3221 28.4632 16.3221 26.8319C16.3221 25.2007 16.9569 23.6659 18.1101 22.5127C19.2632 21.3596 20.798 20.7248 22.4293 20.7248C24.0605 20.7248 25.5953 21.3596 26.7485 22.5127C27.9016 23.6659 28.5364 25.2007 28.5364 26.8319C28.5364 28.4632 27.9016 29.998 26.7485 31.1511ZM26.0052 23.7784H24.2253C24.1208 23.7784 24.0244 23.8266 23.9641 23.911L21.4128 27.4386L20.4846 26.1569C20.4549 26.1155 20.4157 26.0819 20.3702 26.0588C20.3248 26.0357 20.2744 26.0239 20.2235 26.0243H18.4516C18.1904 26.0243 18.0378 26.3217 18.1904 26.5346L21.1556 30.6368C21.2842 30.8136 21.5453 30.8136 21.6739 30.6368L26.2623 24.2886C26.419 24.0757 26.2663 23.7784 26.0052 23.7784ZM13.1078 31.6534H3.78641V3.36765H26.2864V17.1891C26.2864 17.3659 26.4311 17.5105 26.6078 17.5105H28.8578C29.0346 17.5105 29.1793 17.3659 29.1793 17.1891V1.76051C29.1793 1.04935 28.6047 0.474792 27.8936 0.474792H2.17927C1.46811 0.474792 0.893555 1.04935 0.893555 1.76051V33.2605C0.893555 33.9717 1.46811 34.5462 2.17927 34.5462H13.1078C13.2846 34.5462 13.4293 34.4016 13.4293 34.2248V31.9748C13.4293 31.798 13.2846 31.6534 13.1078 31.6534Z" fill="black" fill-opacity="0.45"/>
</svg>
